<?xml version="1.0" encoding="utf-8"?>
<!-- Generator: Adobe Illustrator 27.5.0, SVG Export Plug-In . SVG Version: 6.00 Build 0)  -->
<svg version="1.1" id="Layer_1" xmlns="http://www.w3.org/2000/svg" xmlns:xlink="http://www.w3.org/1999/xlink" x="0px" y="0px"
	 viewBox="0 0 289.2 170" style="enable-background:new 0 0 289.2 170;" xml:space="preserve">
<style type="text/css">
	.st0{fill:#03423C;}
</style>
<g>
	<g>
		<g>
			<polygon class="st0" points="40.1,168.4 40.1,170 0,170 0,130 1.5,130 1.5,168.4 			"/>
			<polygon class="st0" points="289.2,0 289.2,39.9 287.7,39.9 287.7,1.5 249.1,1.5 249.1,0 			"/>
		</g>
	</g>
	<g>
		<g>
			<g>
				<g>
					<circle class="st0" cx="21.6" cy="126.3" r="9.9"/>
				</g>
			</g>
			<path class="st0" d="M92.9,1.9c0,0.7-0.5,1.2-1.2,1.2h-1.4c-0.7,0-1.4,0-1.5,0c-1,0-2.1,0.2-3.5,0.3c-3.9,0.5-4.8,3.6-5.1,9
				c0,0.7,0,3.1-0.1,6.5v90.1c0,7.3-1.7,14.6-5.1,21c-2.8,5.2-6.1,9.9-9.8,13.8c-5,5.2-10.7,9.3-16.9,11.8
				c9.6-9.9,16.1-25.1,16.9-42.3V19c0-3.3-0.1-5.6-0.1-6.5c-0.3-5.3-1.5-7.7-6.3-8.8c-1.1-0.3-3.2-0.5-4.5-0.5c-0.1,0-0.8,0-1.5,0
				h-1.6c-0.7,0-1.2-0.6-1.2-1.2c0-0.7,0.5-1.2,1.2-1.2h40.5C92.4,0.7,92.9,1.2,92.9,1.9z"/>
		</g>
	</g>
	<g>
		<path class="st0" d="M106.2,99.3c0.6-0.3,1.5-0.9,2.3-1.5c4.8-3.3,7.5-6.1,8.7-9.2c1.8-4.3,1.8-7.9,1.8-17.5V56.9
			c0-9.2,0-10.8,0.1-12.7c0.1-2.2,0.5-2.9,1.7-3l0.2,0c0.4,0,0.8-0.1,1.2-0.1c0.8,0,1.1-0.4,1.1-0.8c0-0.9-1-0.9-1.4-0.9
			c-1.3,0-3.5,0.1-4.8,0.1c-0.5,0-0.9,0-1,0c-0.1,0-0.4,0-0.8,0c-1.3,0-3.9-0.2-5.9-0.2c-1.2,0-1.3,0.6-1.3,0.8
			c0,0.4,0.3,0.8,1.1,0.8c0.5,0,1.3,0.1,1.7,0.2c1.6,0.3,2.1,1,2.2,3c0.1,1.9,0.1,3.5,0.1,12.7v17c0,15.5-2,18.3-5.5,21.9
			c-0.5,0.5-1.3,1.2-2,1.6l-0.1,0.1c-0.5,0.3-0.9,0.6-0.9,1.2c0,0.5,0.4,0.8,0.8,0.8C105.8,99.5,106,99.4,106.2,99.3z"/>
		<path class="st0" d="M165.9,84.8c2,0,3.7-0.1,4.8-0.2c0.4,0,0.7,0,0.8,0c0.1,0,0.4,0,0.7,0c1,0.1,2.9,0.2,5.5,0.2
			c0.4,0,1.5,0,1.5-0.9c0-0.4-0.3-0.9-1.2-0.9c-0.5,0-1.5,0-2.5-0.2c-1.2-0.3-1.6-1.6-1.8-6L172.9,53l13.8,14.3c2,2,4.5,4.5,6.9,6.8
			c6.1,6,7.4,7.3,7.8,7.6v0c3.3,3.1,3.9,3.5,4.5,3.5c1,0,1-1,1-4l0.1-32c0-3.8,0.5-4.1,1.5-4.3c0.4-0.1,0.8-0.1,1-0.1
			c0.2,0,0.4,0,0.5-0.1c0.7-0.1,1-0.6,1-1c0-0.8-0.8-0.8-1.4-0.8c-1.7,0-3.1,0.1-4.1,0.1c-0.5,0-0.8,0-1,0c-0.2,0-0.6,0-1.1,0
			c-1.1-0.1-3-0.1-4.9-0.1c-0.5,0-1.6,0-1.6,0.8c0,0.3,0.1,1,1.2,1c0.4,0,1.3,0.1,2.4,0.2c1.3,0.3,1.8,1.1,1.8,4.6l0.7,25.4
			c-1-1-2.5-2.5-4.1-4.1c-2.4-2.5-5.5-5.5-8.1-8c-8.6-8.8-17.8-18.2-18.4-18.8c-0.1-0.1-0.2-0.2-0.3-0.4c-1-1-1.5-1.5-2-1.5
			c-1.1,0-1.2,1.4-1.2,3.1v0c0,5.4,0,5.5,0,8.3c0,2.7,0,7.9,0,22.9c0,4.6-0.3,6-1.4,6.4c-0.8,0.2-1.4,0.2-1.8,0.2
			c-1.3,0-1.4,0.7-1.4,0.9C164.5,84.8,165.6,84.8,165.9,84.8z"/>
		<path class="st0" d="M241.1,84.8c1.8,0,3.7-0.1,4.9-0.1c0.6,0,1,0,1.2,0c0.3,0,1,0,1.7,0.1c1.1,0.1,2.5,0.1,3.3,0.1
			c0.9,0,1.4-0.4,1.4-0.9c0-0.2-0.1-0.9-1.2-0.9h-0.4c-1.5,0-1.6-0.6-1.6-1.2c0-0.9,0.4-2.5,1.1-4.4l2.8-8c0.1-0.2,0.2-0.2,0.2-0.2
			l11.6,0c0,0,0,0,0,0l5,12.8c0.3,0.7,0,0.8,0.1,0.8c-0.5,0.1-0.8,0.5-0.8,0.9c0,0.8,0.9,0.8,2,0.9c4,0.1,8.4,0.1,9.7,0.1
			c0.4,0,1.4,0,1.4-0.9c0-0.4-0.3-0.9-1.2-0.9c-0.4,0-1.3,0-2-0.3c-0.7-0.2-2.5-0.9-4.6-5.9c-2.2-5.3-6.8-16.9-9.9-24.6
			c-1.6-4.1-2.8-7-3.1-7.7c-0.7-1.8-1-2.3-1.7-2.3c-0.8,0-1.1,0.7-1.8,2.5l-12.8,33.6c-1,2.5-2,4.5-4.6,4.8
			c-0.3,0.1-0.9,0.1-1.2,0.1c-0.9,0-1.2,0.5-1.2,0.9C239.7,84.8,240.8,84.8,241.1,84.8z M260.1,52.4L265,66h-9.5L260.1,52.4z"/>
		<path class="st0" d="M141.6,136.7C141.6,136.7,141.6,136.7,141.6,136.7c-0.5,0-1.3-0.1-2.1-0.3c-1.4-0.3-1.6-2.4-1.8-3.4
			l-2.6-21.6c0-0.4-0.1-1.3-0.7-1.3c-0.5,0-0.7,0.4-0.9,0.9L123.2,132l-10.8-21c-0.3-0.5-0.5-0.8-0.9-0.8c-0.5,0-0.7,0.7-0.8,1.3
			l-2.8,22.8c-0.2,1.7-0.6,2.4-1.3,2.5c-0.4,0-0.5,0-0.8,0c-0.5,0-0.8,0.3-0.8,0.5c0,0.6,0.7,0.6,0.9,0.6c0.6,0,1.5,0,2.2-0.1
			c0.4,0,0.8,0,0.9,0c0.1,0,0.4,0,0.7,0c0.7,0,1.8,0.1,2.7,0.1c0.3,0,1,0,1-0.6c0-0.1,0-0.5-0.7-0.5c-0.1,0-0.2,0-0.4,0
			c-0.2,0-0.5,0-0.8-0.1c-0.7-0.1-0.8-0.7-0.8-1c0-0.6,0-1,0-1.5l1.4-14.9c0.7,1.4,2,4.1,4,8l0.2,0.5c0.1,0.2,1.1,2.2,2,3.9
			c0.9,1.8,1.9,3.7,2.2,4.3c0.9,1.6,1.1,1.9,1.5,1.9c0.5,0,0.7-0.4,1.3-1.6l8.6-17.5l1.7,16.7c0.1,0.5,0,0.8-0.1,0.8
			c-0.3,0.1-0.6,0.4-0.6,0.7c0,0.5,0.7,0.6,1.5,0.7c1.4,0.1,5.8,0.2,6.6,0.2c0.8,0,0.9-0.4,0.9-0.6
			C142.4,136.9,142.1,136.7,141.6,136.7z"/>
		<path class="st0" d="M171.2,136.7c-0.3,0-0.8,0-1.3-0.2c-0.4-0.2-1.6-0.6-3-3.9c-1.4-3.4-4.4-10.9-6.4-15.9
			c-1.1-2.7-1.8-4.6-2-5.1c-0.4-1.1-0.7-1.5-1.1-1.5c-0.5,0-0.7,0.5-1.2,1.6l-8.3,21.8c-0.7,1.7-1.3,2.9-3,3.1c-0.2,0-0.6,0-0.8,0
			c-0.6,0-0.8,0.3-0.8,0.6c0,0.6,0.7,0.6,1,0.6c1.2,0,2.4-0.1,3.2-0.1c0.4,0,0.7,0,0.8,0c0.2,0,0.6,0,1.1,0c0.7,0,1.6,0.1,2.1,0.1
			c0.6,0,0.9-0.2,0.9-0.6c0-0.1-0.1-0.6-0.8-0.6h-0.3c-1,0-1.1-0.4-1.1-0.8c0-0.6,0.3-1.6,0.7-2.8l1.8-5.2c0.1-0.1,0.1-0.1,0.1-0.1
			l7.6,0c0,0,0,0,0,0l3.3,8.3c0.2,0.4,0,0.5,0,0.5c-0.3,0.1-0.5,0.3-0.5,0.6c0,0.5,0.6,0.5,1.3,0.6c2.6,0.1,5.5,0.1,6.3,0.1
			c0.3,0,0.9,0,0.9-0.6C172,137,171.8,136.7,171.2,136.7z M153.8,125.7l3-8.9l3.2,8.9H153.8z"/>
		<path class="st0" d="M203.6,136.7c-0.1,0-1,0-1.2-0.1c-1.1-0.2-2.3-0.5-4.2-2.4c-2.1-2.1-4.4-5-7.4-8.7c3.7-3.1,4.3-6.3,4.3-7.9
			c0-3.1-2-4.8-2.6-5.3c-2-1.4-4.7-1.6-7-1.6c-0.7,0-2.2,0.1-3.2,0.1c-0.6,0-1,0-1.2,0l-0.2,0c-0.7,0-2.7-0.1-4.1-0.1
			c-0.7,0-0.8,0.5-0.8,0.6c0,0.1,0.1,0.5,0.8,0.5c0.3,0,0.7,0,0.9,0.1c1.1,0.2,1.3,0.7,1.4,1.7c0.1,1.1,0.1,2.1,0.1,7.6l0,7.6
			c0,2.6,0,5.3-0.2,6.6c-0.1,1-0.4,1.2-0.9,1.3c-0.3,0.1-0.6,0.1-0.8,0.1c-0.4,0-0.8,0.2-0.8,0.5c0,0.6,0.7,0.6,0.9,0.6
			c0.6,0,1.5,0,2.2-0.1c0.6,0,1.1,0,1.4,0c0,0,0.2,0,0.4,0c0.8,0,2.6,0.1,4.3,0.1c0.8,0,0.9-0.4,0.9-0.6c0-0.3-0.2-0.5-0.8-0.5
			c-0.3,0-0.8,0-1.2-0.1c-1.1-0.1-1.2-0.7-1.4-1.7c-0.2-1.5-0.2-4.5-0.2-7.8l0-0.5l4.2,0c0.1,0,0.1,0,0.3,0.1
			c0.3,0.3,0.7,0.9,1.2,1.5c0.8,1.1,1.8,2.4,2.8,3.6c0.3,0.4,0.6,0.7,0.8,1.1c1.7,2.3,2.9,3.7,4.4,4.4c1,0.4,1.9,0.5,3.9,0.5h2.9
			c0.4,0,1,0,1-0.6C204.3,137,204.1,136.7,203.6,136.7z M189,124.3c-0.8,0.5-1.8,0.6-2.6,0.6c-1.5,0-3.1-0.3-3.6-0.5
			c0,0,0-0.1,0-0.2v-11.3c0-0.1,0-0.1,0-0.1c0.5-0.1,1.4-0.2,2.3-0.2c3.6,0,5.8,2.5,5.8,6.7C191,121.7,190.3,123.5,189,124.3z"/>
		<path class="st0" d="M221.7,132.3c-0.5,0-0.6,0.6-0.7,0.8c-0.3,1.5-0.6,2.2-1.7,2.5c-0.9,0.2-2,0.2-2.8,0.2l-0.3,0
			c-1.5,0-2.4-0.1-2.9-0.3c-0.7-0.3-0.9-0.9-1-2.4c0-0.5,0-2.4,0-4c0-0.7,0-1.2,0-1.6l0-3c0.7,0,4,0.1,4.9,0.2
			c1.4,0.1,1.6,0.6,1.7,1c0.1,0.3,0.1,0.7,0.1,0.9c0,0.7,0.3,0.8,0.5,0.8c0.5,0,0.6-0.5,0.6-0.7c0-0.2,0-0.4,0-0.6
			c0-0.5,0-1.1,0.1-1.9c0.1-0.7,0.2-1.2,0.2-1.6c0-0.3,0.1-0.5,0.1-0.6c0-0.4-0.2-0.5-0.5-0.5c-0.3,0-0.6,0.2-0.7,0.5
			c-0.2,0.3-0.7,0.5-1.7,0.5c-0.8,0.1-4.8,0.1-5.5,0.1c0,0,0-0.1,0-0.1v-9.4c0,0,0,0,0,0c0.6,0,4.1,0,4.6,0.1
			c2.1,0.1,2.2,0.4,2.4,1.1c0.1,0.3,0.2,0.7,0.3,1.2c0,0.7,0.5,0.8,0.6,0.8c0.2,0,0.6-0.1,0.6-0.9c0-0.6,0.1-1.1,0.1-1.6l0-0.5
			c0-0.6,0.2-1.1,0.2-1.4c0.1-0.2,0.1-0.4,0.1-0.5c0-0.4-0.2-0.6-0.5-0.6c-0.2,0-0.3,0-0.4,0.1l-0.2,0.1c-0.3,0.1-0.7,0.1-1.5,0.2
			c-0.8,0-8.1,0-8.4,0c-1.3,0-2.2-0.1-2.9-0.1c-0.6,0-1,0-1.4,0c-0.6,0-0.9,0.2-0.9,0.6c0,0.4,0.4,0.5,0.8,0.5c0.3,0,0.7,0,0.9,0.1
			c1.1,0.2,1.3,0.7,1.3,1.7c0.1,1.1,0.1,2.1,0.1,7.5v6.2c0,3.1,0,4.8-0.1,6.3c-0.1,2.6-0.6,2.9-1.1,3c-0.3,0.1-0.5,0.1-0.7,0.1
			c-0.4,0-0.7,0.3-0.7,0.6c0,0.3,0.2,0.6,0.9,0.6c0.5,0,1,0,1.4-0.1c0.4,0,0.9-0.1,1.3-0.1c1.1,0,2.4,0,3.5,0.1c0.5,0,0.9,0,1.4,0
			c0.6,0,1.2,0,1.8,0c0.9,0,1.9,0.1,3.5,0.1c1.3,0,1.9,0,2.1-1.2c0.1-0.7,0.5-3.3,0.5-3.7C222.2,132.9,222.2,132.3,221.7,132.3z"/>
		<path class="st0" d="M245.8,132.3c-0.5,0-0.6,0.6-0.7,0.8c-0.3,1.5-0.6,2.2-1.7,2.5c-0.9,0.2-2,0.2-2.8,0.2l-0.3,0
			c-1.5,0-2.4-0.1-2.9-0.3c-0.7-0.3-0.9-0.9-1-2.4c0-0.5,0-2.4,0-4c0-0.7,0-1.2,0-1.6l0-3c0.7,0,4,0.1,4.9,0.2
			c1.4,0.1,1.6,0.6,1.7,1c0.1,0.3,0.1,0.7,0.1,0.9c0,0.7,0.3,0.8,0.5,0.8c0.5,0,0.6-0.5,0.6-0.7c0-0.2,0-0.4,0-0.6
			c0-0.5,0.1-1.1,0.1-1.9c0.1-0.7,0.2-1.2,0.2-1.6c0-0.3,0.1-0.5,0.1-0.6c0-0.4-0.2-0.5-0.5-0.5c-0.3,0-0.6,0.2-0.7,0.5
			c-0.2,0.3-0.7,0.5-1.7,0.5c-0.8,0.1-4.8,0.1-5.5,0.1c0,0,0-0.1,0-0.1v-9.4c0,0,0,0,0,0c0.6,0,4.1,0,4.6,0.1
			c2.1,0.1,2.2,0.4,2.4,1.1c0.1,0.3,0.2,0.7,0.3,1.2c0,0.7,0.5,0.8,0.6,0.8c0.2,0,0.6-0.1,0.6-0.9c0-0.6,0.1-1.1,0.1-1.6l0-0.5
			c0-0.6,0.2-1.1,0.2-1.4c0.1-0.2,0.1-0.4,0.1-0.5c0-0.4-0.2-0.6-0.5-0.6c-0.2,0-0.3,0-0.4,0.1l-0.2,0.1c-0.3,0.1-0.7,0.1-1.5,0.2
			c-0.8,0-8.1,0-8.4,0c-1.3,0-2.2-0.1-2.9-0.1c-0.6,0-1,0-1.4,0c-0.6,0-0.9,0.2-0.9,0.6c0,0.4,0.4,0.5,0.8,0.5c0.3,0,0.7,0,0.9,0.1
			c1.1,0.2,1.3,0.7,1.3,1.7c0.1,1.1,0.1,2.1,0.1,7.5v6.2c0,3.1,0,4.8-0.1,6.3c-0.1,2.6-0.6,2.9-1.1,3c-0.3,0.1-0.5,0.1-0.7,0.1
			c-0.4,0-0.7,0.3-0.7,0.6c0,0.3,0.2,0.6,0.9,0.6c0.5,0,1,0,1.4-0.1c0.4,0,0.9-0.1,1.3-0.1c1.1,0,2.4,0,3.5,0.1c0.5,0,0.9,0,1.4,0
			c0.6,0,1.2,0,1.8,0c0.9,0,1.9,0.1,3.5,0.1c1.3,0,1.9,0,2.1-1.2c0.1-0.7,0.5-3.3,0.5-3.7C246.3,132.9,246.3,132.3,245.8,132.3z"/>
		<path class="st0" d="M282.8,110.7c-1.1,0-2,0.1-2.6,0.1c-0.3,0-0.5,0-0.7,0c-0.1,0-0.4,0-0.7,0c-0.7,0-2-0.1-3.2-0.1
			c-0.3,0-1,0-1,0.5c0,0.2,0.1,0.6,0.8,0.6c0.2,0,0.8,0,1.5,0.2c0.9,0.2,1.1,0.7,1.2,3l0.4,16.5c-0.6-0.6-1.6-1.6-2.7-2.7
			c-1.6-1.6-3.5-3.6-5.2-5.2c-5.4-5.5-11.6-11.8-11.9-12.2c-0.1-0.1-0.1-0.1-0.2-0.2c-0.6-0.7-1-1-1.3-1c-0.7,0-0.8,0.9-0.8,2v0
			c0,3.5,0,3.6,0,5.4c0,1.8,0,5.1,0,14.9c0,3-0.2,3.9-0.9,4.1c-0.5,0.2-0.9,0.2-1.2,0.2c-0.8,0-0.9,0.5-0.9,0.6
			c0,0.6,0.7,0.6,0.9,0.6c1.3,0,2.4-0.1,3.1-0.1c0.3,0,0.4,0,0.5,0c0.1,0,0.2,0,0.5,0c0.7,0,1.9,0.1,3.6,0.1c0.2,0,1,0,1-0.6
			c0-0.3-0.2-0.6-0.8-0.6c-0.3,0-1,0-1.6-0.2c-0.8-0.2-1.1-1.1-1.1-3.9l-0.5-15.4l9,9.3c1.3,1.3,3,2.9,4.5,4.5
			c3.9,3.8,4.8,4.7,5,4.9v0c2.1,2,2.5,2.3,2.9,2.3c0.6,0,0.7-0.6,0.7-2.6l0.1-20.8c0-2.5,0.3-2.7,1-2.8c0.3,0,0.5-0.1,0.7-0.1
			c0.1,0,0.3,0,0.4,0c0.5-0.1,0.6-0.4,0.6-0.6C283.6,110.7,283.1,110.7,282.8,110.7z"/>
	</g>
</g>
</svg>
